<svg width="80" height="80" viewBox="0 0 80 80" fill="none" xmlns="http://www.w3.org/2000/svg">
<path d="M80 40C80 62.0914 62.0914 80 40 80C17.9086 80 0 62.0914 0 40C0 17.9086 17.9086 0 40 0C62.0914 0 80 17.9086 80 40Z" fill="#232728"/>
<path d="M45.2812 17.0204C42.6094 17.2043 40.4297 18.4654 39.1641 20.2432C38.9268 20.5848 38.7246 20.9351 38.5312 21.2942C37.7314 20.3396 36.8262 19.5163 35.8594 18.9121C34.4707 18.0363 32.9502 17.5371 31.2891 17.721C29.6279 17.9049 27.9844 19.0084 27.2109 20.6636C26.5166 22.1349 26.6484 23.65 27 25.0775C27.2637 26.1459 27.6768 27.2406 28.1953 28.3003C27.3604 28.1777 26.5254 28.0814 25.6641 28.0901C23.8887 28.1077 22.0693 28.4755 20.5312 29.6315C18.9932 30.7875 18 32.8106 18 35.0963C18 38.0564 19.916 40.2371 21.9375 41.2617C20.8916 42.6367 20.25 44.3707 20.25 46.3062C20.25 48.0665 21.6475 49.6954 22.9922 50.2296C24.3369 50.7639 25.6816 50.7901 27 50.7901C27.1934 50.7901 27.3779 50.7288 27.5625 50.7201C26.9561 52.4804 26.8066 54.337 27.1406 56.0448C27.4307 57.5598 28.1338 58.9786 29.25 60.1083C30.3662 61.2381 31.9746 62 33.75 62C37.2656 62 39.9463 60.2397 41.2734 58.0765C41.458 57.7788 41.5547 57.4635 41.6953 57.1657C42.3984 57.9014 43.1367 58.567 43.9453 58.9873C46.0811 60.0996 48.5596 59.8719 50.2734 58.637C52.0225 57.3759 53.0508 55.2916 53.0859 52.962C54.6152 53.3123 56.1797 53.2598 57.5859 52.8219C60.6621 51.8586 63 48.9072 63 45.2553C63 42.1463 61.3477 39.6328 59.2734 38.179C59.4756 38.0301 59.7217 37.9163 59.9062 37.7587C61.4443 36.4625 62.3408 34.7898 62.3672 33.0645C62.4111 29.6227 59.2822 26.9516 55.6875 27.1093C54.9932 27.1356 54.3516 27.2757 53.7188 27.3895C53.8594 26.4612 53.9209 25.5154 53.8594 24.517C53.7627 23.0194 53.376 21.4781 52.4531 20.1031C51.5303 18.7282 49.9922 17.6072 48.0938 17.2306C47.1094 17.0379 46.1689 16.9591 45.2812 17.0204ZM45.4922 21.3642C45.958 21.3642 46.5117 21.443 47.1797 21.5744C47.9971 21.7408 48.3838 22.0473 48.7266 22.5553C49.0693 23.0632 49.2979 23.8777 49.3594 24.7972C49.4736 26.6276 48.4629 28.9134 48.3047 29.071C47.4082 29.9643 47.1621 30.2095 46.5469 30.8226C46.3799 30.9627 46.2393 31.1291 46.125 31.313C45.6416 31.7947 44.7275 32.6266 44.5078 32.8543C43.7695 32.4077 42.9785 32.0574 42.1172 31.8735C42.0381 31.3305 41.7129 29.395 41.5547 28.3003C41.5635 28.1865 41.5635 28.0639 41.5547 27.95C41.5547 26.0846 41.9941 23.9915 42.8203 22.8355C43.4355 21.9685 44.0859 21.373 45.4922 21.3642ZM31.7812 22.1349C32.0537 22.1086 32.7041 22.2137 33.4688 22.6954C34.9893 23.65 36.7207 25.927 37.125 28.6506C37.125 28.6682 37.125 28.7032 37.125 28.7207C37.2656 29.7103 37.5293 31.6107 37.6172 32.2938C37.4062 32.3814 37.1865 32.469 36.9844 32.5741C36.9141 32.5303 36.9141 32.5566 36.8438 32.504C36.7734 32.4602 36.7031 32.4165 36.6328 32.3639C35.209 30.9189 33.7324 29.0185 32.6953 27.1793C32.0449 26.0233 31.5703 24.8936 31.3594 24.0266C31.1484 23.1596 31.2627 22.6866 31.2891 22.6253C31.5088 22.1524 31.5088 22.1612 31.7812 22.1349ZM55.8984 31.5932C57.2871 31.5319 57.876 32.3639 57.8672 32.9945C57.8672 33.3097 57.7793 33.7564 57.0234 34.3957C56.2676 35.035 54.8086 35.7444 52.4531 36.2173C52.1455 36.2611 51.917 36.2961 51.5391 36.3574C51.4863 36.3662 51.46 36.3487 51.3984 36.3574C51.3281 36.3749 51.2578 36.4012 51.1875 36.4275C49.7461 36.6464 48.876 36.7603 47.8125 36.9179C47.7246 36.6815 47.6367 36.445 47.5312 36.2173C47.7158 36.0334 48.709 34.9912 49.2891 34.3957C49.3154 34.3694 49.333 34.3519 49.3594 34.3256C51.9873 32.2501 53.0684 31.7158 55.8984 31.5932ZM25.7344 32.5741C28.0371 32.5478 31.1748 33.7564 31.9922 34.4658C32.4316 34.8423 32.915 35.1664 33.3984 35.5167C33.4688 35.5867 33.5391 35.6568 33.6094 35.7269C33.46 35.9808 33.3809 36.2961 33.2578 36.5676C32.2559 36.6815 30.5508 36.9004 27.8438 37.6185C27.8174 37.6273 27.7998 37.6798 27.7734 37.6886C27.6592 37.7149 27.5361 37.7236 27.4219 37.7587C26.6133 37.855 25.0664 37.7762 24.0469 37.3383C22.9834 36.8829 22.5 36.5413 22.5 35.0963C22.5 33.8965 22.7461 33.5462 23.2031 33.2046C23.6602 32.8631 24.583 32.5916 25.7344 32.5741ZM40.4297 36.2173C42.3281 36.2173 43.8047 37.6798 43.8047 39.5803C43.8047 41.4807 42.3281 42.9432 40.4297 42.9432C38.5312 42.9432 37.0547 41.4807 37.0547 39.5803C37.0547 38.6344 37.4326 37.8024 38.0391 37.1982C38.1621 37.1193 38.2852 37.023 38.3906 36.9179C38.417 36.9004 38.4346 36.8654 38.4609 36.8479C38.4873 36.8216 38.5049 36.8041 38.5312 36.7778C39.0674 36.4187 39.7178 36.2173 40.4297 36.2173ZM53.0156 40.7713C54.1055 40.8239 55.415 41.1742 56.3906 41.7522C57.6914 42.5229 58.5 43.4599 58.5 45.2553C58.5 47.1469 57.6123 48.119 56.25 48.5482C54.8877 48.9773 52.9189 48.662 51.1172 46.8667C51.0908 46.8404 51.0732 46.8229 51.0469 46.7966C50.625 46.4288 50.6602 46.5076 50.2734 46.1661C50.2295 46.1135 50.1855 46.0697 50.1328 46.0259C48.6738 44.7561 47.9443 44.108 47.25 43.5037C47.6191 42.8732 47.918 42.1988 48.0938 41.4719C49.0342 41.3055 50.124 41.0866 51.6797 40.8414C51.8291 40.8151 51.8906 40.8676 52.0312 40.8414C52.3301 40.7976 52.6553 40.7538 53.0156 40.7713ZM36.5625 46.4463C36.5713 46.4375 36.624 46.4551 36.6328 46.4463C37.0371 46.6652 37.459 46.8579 37.8984 47.0068C37.916 47.7337 37.9688 48.5482 38.1797 49.8093C38.1973 50.1421 38.2324 50.5186 38.25 50.7901C38.2939 51.3769 38.3291 52.025 38.3203 51.771C38.3467 53.0321 38.0566 54.7048 37.4062 55.7645C36.7559 56.8242 35.9736 57.5161 33.75 57.5161C33.1348 57.5161 32.7744 57.3234 32.4141 56.9556C32.0537 56.5877 31.7285 56.0097 31.5703 55.204C31.2627 53.5926 31.7812 51.4907 33.1172 50.1596C34.1807 49.0999 35.6484 47.4359 36.5625 46.4463ZM43.9453 46.5864C44.4814 47.0418 45.4746 47.8651 46.8984 49.1087C46.916 49.1524 46.9424 49.205 46.9688 49.2488C49.5879 52.025 48.6299 54.302 47.6719 54.9938C47.1973 55.3354 46.7666 55.4667 45.9844 55.0639C45.2285 54.6698 44.0332 53.3737 43.0312 50.8602C43.0225 50.8339 43.04 50.8164 43.0312 50.7901C42.8115 50.0895 42.7148 49.1962 42.6094 48.338C42.5742 47.9088 42.5127 47.541 42.4688 47.1469C42.9873 47.0068 43.4707 46.8229 43.9453 46.5864Z" fill="#A27D4D"/>
</svg>
