<svg width="80" height="80" viewBox="0 0 80 80" fill="none" xmlns="http://www.w3.org/2000/svg">
<path d="M80 40C80 62.0914 62.0914 80 40 80C17.9086 80 0 62.0914 0 40C0 17.9086 17.9086 0 40 0C62.0914 0 80 17.9086 80 40Z" fill="#232728"/>
<path d="M54.2444 24.4889L51.5556 21.463C49.8222 19.5123 47 19.5123 45.2667 21.463L39.3111 28.1651L20 49.8968V60H28.9778L48.4 38.1432L54.2444 31.5661C56 29.6155 56 26.4395 54.2444 24.4889ZM27.1333 54.9984H24.4444V51.9725L43.6889 30.3157L46.3778 33.3417L27.1333 54.9984ZM37.7778 60L46.6667 49.9969H60V60H37.7778Z" fill="#A27D4D"/>
</svg>
