<svg width="30" height="30" viewBox="0 0 30 30" fill="none" xmlns="http://www.w3.org/2000/svg">
<path d="M8.21859 0C3.68029 0 0 3.73167 0 8.33333V21.6667C0 26.2683 3.68029 30 8.21859 30H21.3683C25.9067 30 29.5869 26.2683 29.5869 21.6667V8.33333C29.5869 3.73167 25.9067 0 21.3683 0H8.21859ZM24.6558 3.33333C25.5631 3.33333 26.2995 4.08 26.2995 5C26.2995 5.92 25.5631 6.66667 24.6558 6.66667C23.7484 6.66667 23.0121 5.92 23.0121 5C23.0121 4.08 23.7484 3.33333 24.6558 3.33333ZM14.7935 6.66667C19.3318 6.66667 23.0121 10.3983 23.0121 15C23.0121 19.6017 19.3318 23.3333 14.7935 23.3333C10.2552 23.3333 6.57488 19.6017 6.57488 15C6.57488 10.3983 10.2552 6.66667 14.7935 6.66667ZM14.7935 10C13.4856 10 12.2314 10.5268 11.3066 11.4645C10.3818 12.4021 9.86231 13.6739 9.86231 15C9.86231 16.3261 10.3818 17.5979 11.3066 18.5355C12.2314 19.4732 13.4856 20 14.7935 20C16.1013 20 17.3556 19.4732 18.2803 18.5355C19.2051 17.5979 19.7246 16.3261 19.7246 15C19.7246 13.6739 19.2051 12.4021 18.2803 11.4645C17.3556 10.5268 16.1013 10 14.7935 10Z" fill="#A27D4D"/>
</svg>
