<svg width="30" height="30" viewBox="0 0 30 30" fill="none" xmlns="http://www.w3.org/2000/svg">
<path d="M25.2641 4.392C22.4739 1.5615 18.7635 0.0015 14.8105 0C6.66479 0 0.0355062 6.7185 0.0325474 14.9775C0.0310679 17.6175 0.711601 20.1945 2.00461 22.4655L0 30L7.74181 28.1445C9.90028 29.3385 12.3295 29.967 14.8031 29.9685H14.809C22.9532 29.9685 29.5825 23.2485 29.5869 14.991C29.5899 10.9875 28.0543 7.224 25.2641 4.392ZM22.0404 20.331C21.7327 21.2055 20.2252 22.0485 19.5476 22.11C18.87 22.173 18.2353 22.4205 15.1167 21.174C11.3634 19.674 8.9934 15.7725 8.80995 15.5235C8.62502 15.273 7.30242 13.494 7.30242 11.652C7.30242 9.81 8.25665 8.904 8.59543 8.5305C8.93422 8.1555 9.33366 8.0625 9.58073 8.0625C9.82631 8.0625 10.0734 8.0625 10.2879 8.0715C10.5512 8.082 10.8427 8.0955 11.1193 8.718C11.4478 9.459 12.1653 11.31 12.257 11.4975C12.3487 11.685 12.4109 11.904 12.2881 12.153C12.1653 12.402 12.1031 12.558 11.9197 12.777C11.7348 12.996 11.5321 13.2645 11.3664 13.4325C11.1815 13.6185 10.9891 13.8225 11.2037 14.196C11.4196 14.571 12.1594 15.7965 13.2571 16.788C14.6685 18.063 15.8564 18.4575 16.2263 18.6465C16.5961 18.834 16.8107 18.8025 17.0267 18.552C17.2426 18.303 17.9498 17.46 18.1954 17.085C18.441 16.71 18.688 16.773 19.0268 16.8975C19.3656 17.022 21.1809 17.928 21.5492 18.1155C21.9191 18.303 22.1647 18.396 22.2564 18.552C22.3481 18.7065 22.3481 19.4565 22.0404 20.331Z" fill="#A27D4D"/>
</svg>
